<svg width="40" height="40" viewBox="0 0 40 40" fill="none" xmlns="http://www.w3.org/2000/svg">
<path d="M16.7496 4.74989L2.09961 19.3999C1.76628 19.7332 1.76628 20.2499 2.09961 20.5832L16.7496 35.2332C17.2829 35.7499 18.1663 35.3832 18.1663 34.6499V30.3332C18.1663 30.1166 18.0829 29.8999 17.9163 29.7499L8.74959 20.5832C8.41626 20.2499 8.41626 19.7332 8.74959 19.3999L17.9163 10.2332C18.0663 10.0832 18.1663 9.86656 18.1663 9.64989V5.33323C18.1663 4.5999 17.2662 4.23322 16.7496 4.74989Z" fill="white"/>
<path d="M22.9166 4.74989L37.5666 19.3999C37.8999 19.7332 37.8999 20.2499 37.5666 20.5832L22.9166 35.2332C22.4 35.7499 21.5 35.3832 21.5 34.6499V30.3332C21.5 30.1166 21.5833 29.8999 21.7499 29.7499L30.9166 20.5832C31.2499 20.2499 31.2499 19.7332 30.9166 19.3999L21.7499 10.2332C21.5999 10.0832 21.5 9.86656 21.5 9.64989V5.33323C21.5 4.5999 22.4 4.23322 22.9166 4.74989Z" fill="white"/>
<path d="M16.7509 16.4166L13.7676 19.4C13.4342 19.7333 13.4342 20.25 13.7676 20.5833L16.7509 23.5666C17.2842 24.0833 18.1676 23.7166 18.1676 22.9833V17C18.1676 16.2666 17.2675 15.9 16.7509 16.4166Z" fill="white"/>
</svg>
