<svg width="1932" height="727" viewBox="0 0 1932 727" fill="none" xmlns="http://www.w3.org/2000/svg">
<g clip-path="url(#clip0_352_39)">
<path d="M0.700195 10.0972H114.1C152.367 10.0972 181.067 24.9064 200.2 54.525C219.333 84.1435 228.9 127.562 228.9 184.779V254.45C228.9 311.668 219.333 355.086 200.2 384.704C181.067 414.322 152.367 429.132 114.1 429.132H77.7002V716.903H0.700195V10.0972ZM114.1 328.16C126.7 328.16 136.033 323.111 142.1 313.014C148.633 302.917 151.9 285.751 151.9 261.518V177.711C151.9 153.478 148.633 136.313 142.1 126.215C136.033 116.118 126.7 111.069 114.1 111.069H77.7002V328.16H114.1ZM347.02 727C309.22 727 280.286 711.518 260.22 680.553C240.153 649.588 230.12 605.833 230.12 549.289V177.711C230.12 121.167 240.153 77.412 260.22 46.4473C280.286 15.4824 309.22 0 347.02 0C384.82 0 413.753 15.4824 433.82 46.4473C453.886 77.412 463.92 121.167 463.92 177.711V549.289C463.92 605.833 453.886 649.588 433.82 680.553C413.753 711.518 384.82 727 347.02 727ZM347.02 626.028C373.62 626.028 386.92 602.804 386.92 556.357V170.643C386.92 124.196 373.62 100.972 347.02 100.972C320.42 100.972 307.12 124.196 307.12 170.643V556.357C307.12 602.804 320.42 626.028 347.02 626.028ZM480.993 10.0972H595.093C634.76 10.0972 663.693 23.5602 681.893 50.4861C700.093 76.7389 709.193 117.464 709.193 172.663V216.081C709.193 289.454 692.393 335.901 658.793 355.422V357.442C677.46 365.519 690.526 382.011 697.993 406.918C705.926 431.825 709.893 465.146 709.893 506.881V631.076C709.893 651.271 710.36 667.763 711.293 680.553C712.226 692.669 714.56 704.786 718.293 716.903H639.893C637.093 705.46 635.226 694.689 634.293 684.592C633.36 674.494 632.893 656.319 632.893 630.067V500.822C632.893 468.511 629.16 445.961 621.693 433.171C614.693 420.381 602.326 413.986 584.593 413.986H557.993V716.903H480.993V10.0972ZM585.993 313.014C601.393 313.014 612.826 307.292 620.293 295.849C628.226 284.406 632.193 265.221 632.193 238.294V183.769C632.193 158.19 628.926 139.678 622.393 128.235C616.326 116.791 606.526 111.069 592.993 111.069H557.993V313.014H585.993ZM787.15 111.069H706.65V10.0972H944.65V111.069H864.15V716.903H787.15V111.069ZM946.93 10.0972H1150.63V111.069H1023.93V307.965H1123.33V408.938H1023.93V716.903H946.93V10.0972ZM1263.86 727C1226.06 727 1197.12 711.518 1177.06 680.553C1156.99 649.588 1146.96 605.833 1146.96 549.289V177.711C1146.96 121.167 1156.99 77.412 1177.06 46.4473C1197.12 15.4824 1226.06 0 1263.86 0C1301.66 0 1330.59 15.4824 1350.66 46.4473C1370.72 77.412 1380.76 121.167 1380.76 177.711V549.289C1380.76 605.833 1370.72 649.588 1350.66 680.553C1330.59 711.518 1301.66 727 1263.86 727ZM1263.86 626.028C1290.46 626.028 1303.76 602.804 1303.76 556.357V170.643C1303.76 124.196 1290.46 100.972 1263.86 100.972C1237.26 100.972 1223.96 124.196 1223.96 170.643V556.357C1223.96 602.804 1237.26 626.028 1263.86 626.028ZM1397.83 10.0972H1474.83V615.931H1601.53V716.903H1397.83V10.0972ZM1603.45 10.0972H1680.45V716.903H1603.45V10.0972ZM1814.42 727C1776.62 727 1747.69 711.518 1727.62 680.553C1707.56 649.588 1697.52 605.833 1697.52 549.289V177.711C1697.52 121.167 1707.56 77.412 1727.62 46.4473C1747.69 15.4824 1776.62 0 1814.42 0C1852.22 0 1881.16 15.4824 1901.22 46.4473C1921.29 77.412 1931.32 121.167 1931.32 177.711V549.289C1931.32 605.833 1921.29 649.588 1901.22 680.553C1881.16 711.518 1852.22 727 1814.42 727ZM1814.42 626.028C1841.02 626.028 1854.32 602.804 1854.32 556.357V170.643C1854.32 124.196 1841.02 100.972 1814.42 100.972C1787.82 100.972 1774.52 124.196 1774.52 170.643V556.357C1774.52 602.804 1787.82 626.028 1814.42 626.028Z" fill="black"/>
</g>
<defs>
<clipPath id="clip0_352_39">
<rect width="1932" height="727" fill="white"/>
</clipPath>
</defs>
</svg>
