<!--?xml version="1.0" standalone="no"?-->
              <svg id="sw-js-blob-svg" viewBox="0 0 100 100" xmlns="http://www.w3.org/2000/svg" version="1.1">
                    <defs> 
                        <linearGradient id="sw-gradient" x1="0" x2="1" y1="1" y2="0">
                            <stop id="stop1" stop-color="rgba(13, 55, 32, 1)" offset="0%"></stop>
                            <stop id="stop2" stop-color="rgba(13, 55, 32, 0.9)" offset="100%"></stop>
                        </linearGradient>
                    </defs>
                <path fill="url(#sw-gradient)" d="M20.7,-31.4C23.3,-26.6,19.4,-15.8,21.9,-7.3C24.4,1.2,33.3,7.5,33.8,12.5C34.3,17.6,26.3,21.4,19.3,23.7C12.2,25.9,6.1,26.6,-1.2,28.3C-8.6,30,-17.1,32.6,-22.2,29.8C-27.3,26.9,-29,18.4,-27,11.8C-25,5.2,-19.2,0.4,-17.4,-5.8C-15.6,-12.1,-17.8,-19.9,-15.6,-24.7C-13.4,-29.6,-6.7,-31.5,1.2,-33.2C9.1,-34.8,18.1,-36.1,20.7,-31.4Z" width="100%" height="100%" transform="translate(50 50)" stroke-width="0" style="transition: all 0.3s ease 0s;" stroke="url(#sw-gradient)"></path>
              </svg>