<!--?xml version="1.0" standalone="no"?-->
              <svg id="sw-js-blob-svg" viewBox="0 0 100 100" xmlns="http://www.w3.org/2000/svg" version="1.1">
                    <defs> 
                        <linearGradient id="sw-gradient" x1="0" x2="1" y1="1" y2="0">
                            <stop id="stop1" stop-color="rgba(221, 214, 206, 1)" offset="0%"></stop>
                            <stop id="stop2" stop-color="rgba(221, 214, 206, 1)" offset="100%"></stop>
                        </linearGradient>
                    </defs>
                <path fill="url(#sw-gradient)" d="M18.8,-23.4C25.4,-21.2,32.4,-17,32.8,-11.6C33.2,-6.3,27,0.2,23.7,6.8C20.3,13.4,19.9,20.1,16.4,22.9C12.9,25.7,6.5,24.7,-0.8,25.8C-8.2,27,-16.3,30.3,-20.7,27.8C-25.1,25.3,-25.8,17,-26.6,9.8C-27.4,2.6,-28.3,-3.5,-26,-7.8C-23.7,-12.1,-18.2,-14.8,-13.3,-17.5C-8.4,-20.2,-4.2,-23.1,1,-24.4C6.1,-25.8,12.3,-25.5,18.8,-23.4Z" width="100%" height="100%" transform="translate(50 50)" stroke-width="0" style="transition: all 0.3s ease 0s;" stroke="url(#sw-gradient)"></path>
              </svg>