<svg width="155" height="155" viewBox="0 0 155 155" fill="none" xmlns="http://www.w3.org/2000/svg">
<mask id="mask0_178_3942" style="mask-type:luminance" maskUnits="userSpaceOnUse" x="62" y="63" width="28" height="31">
<path d="M89.9707 63.6567H62.9707V93.6567H89.9707V63.6567Z" fill="white"/>
<path fill-rule="evenodd" clip-rule="evenodd" d="M87.9712 80.6567L79.4858 89.142L76.6574 91.9704L73.829 89.142L65.3438 80.6567L68.1721 77.8283L74.6577 84.3138V64.6567H78.6577V84.3134L85.1428 77.8283L87.9712 80.6567Z" fill="black"/>
</mask>
<g mask="url(#mask0_178_3942)">
<path d="M87.9703 80.6567L88.6774 81.3638L89.3845 80.6567L88.6774 79.9496L87.9703 80.6567ZM76.6566 91.9704L75.9495 92.6776L76.6566 93.3847L77.3637 92.6776L76.6566 91.9704ZM65.3429 80.6567L64.6358 79.9496L63.9287 80.6567L64.6358 81.3638L65.3429 80.6567ZM68.1713 77.8283L68.8784 77.1212L68.1713 76.4141L67.4642 77.1212L68.1713 77.8283ZM74.6568 84.3138L73.9497 85.0209L75.6568 86.728V84.3138H74.6568ZM74.6568 64.6567V63.6567H73.6568V64.6567H74.6568ZM78.6568 64.6567H79.6568V63.6567H78.6568V64.6567ZM78.6568 84.3134H77.6568V86.7276L79.3639 85.0205L78.6568 84.3134ZM85.1419 77.8283L85.849 77.1212L85.1419 76.4141L84.4348 77.1212L85.1419 77.8283ZM80.1921 89.8491L88.6774 81.3638L87.2632 79.9496L78.7779 88.4349L80.1921 89.8491ZM77.3637 92.6776L80.1921 89.8491L78.7779 88.4349L75.9495 91.2633L77.3637 92.6776ZM73.1211 89.8491L75.9495 92.6776L77.3637 91.2633L74.5353 88.4349L73.1211 89.8491ZM64.6358 81.3638L73.1211 89.8491L74.5353 88.4349L66.05 79.9496L64.6358 81.3638ZM67.4642 77.1212L64.6358 79.9496L66.05 81.3638L68.8784 78.5354L67.4642 77.1212ZM75.3639 83.6067L68.8784 77.1212L67.4642 78.5354L73.9497 85.0209L75.3639 83.6067ZM75.6568 84.3138V64.6567H73.6568V84.3138H75.6568ZM74.6568 65.6567H78.6568V63.6567H74.6568V65.6567ZM77.6568 64.6567V84.3134H79.6568V64.6567H77.6568ZM84.4348 77.1212L77.9497 83.6063L79.3639 85.0205L85.849 78.5354L84.4348 77.1212ZM88.6774 79.9496L85.849 77.1212L84.4348 78.5354L87.2632 81.3638L88.6774 79.9496Z" fill="white"/>
</g>
<path d="M142.109 82.8413L147.361 79.7439L150.513 83.0157L150.628 81.0391L147.169 77.461L150.823 77.6727L150.915 76.0794L142.529 75.5935L142.437 77.1868L145.049 77.3381L146.25 78.5857L142.223 80.8766L142.109 82.8413Z" fill="white"/>
<path d="M147.251 71.9191C145.366 32.1993 111.639 1.52806 71.9186 3.413C32.1988 5.29794 1.52757 39.0253 3.41251 78.7451C4.55445 102.808 17.3833 123.55 36.1512 135.745" stroke="white"/>
<path d="M140.951 89.7265L142.312 89.9591L143.009 85.8783L145.221 86.2565L144.679 89.4265L146.028 89.657L146.57 86.487L148.58 86.8309L147.905 90.7815L149.253 91.0121L150.196 85.5001L141.916 84.0844L140.951 89.7265Z" fill="white"/>
<path d="M139.226 96.0936L140.556 96.4596L141.654 92.4679L143.818 93.063L142.965 96.1639L144.284 96.5267L145.137 93.4259L147.104 93.9669L146.041 97.8314L147.36 98.1942L148.843 92.8025L140.744 90.5746L139.226 96.0936Z" fill="white"/>
<path d="M138.397 98.3325L141.368 99.4986L140.72 101.152C140.08 102.783 140.703 104.149 142.122 104.706C143.541 105.263 144.928 104.685 145.568 103.054L146.799 99.9154L138.98 96.8468L138.397 98.3325ZM144.976 100.914L144.354 102.501C144.012 103.372 143.313 103.51 142.688 103.265C142.062 103.019 141.644 102.443 141.986 101.571L142.608 99.9851L144.976 100.914Z" fill="white"/>
<path d="M133.502 108.576C132.574 110.174 132.749 111.76 134.098 112.544C136.931 114.189 138.023 109.537 139.632 110.471C140.14 110.766 140.213 111.405 139.797 112.121C139.351 112.889 138.636 113.14 137.967 112.835L137.208 114.142C138.603 114.87 140.088 114.344 140.98 112.808C141.836 111.335 141.603 109.826 140.409 109.132C137.628 107.517 136.441 112.046 134.885 111.141C134.241 110.768 134.244 110.047 134.696 109.269C135.202 108.397 136.034 108.159 136.886 108.557L137.651 107.239C136.084 106.426 134.461 106.926 133.502 108.576Z" fill="white"/>
<path d="M128.856 115.607C127.617 117.258 127.646 119.2 128.937 120.378L129.888 119.111C129.244 118.449 129.268 117.357 129.96 116.435C130.838 115.264 132.307 114.986 133.833 116.13C135.36 117.275 135.513 118.77 134.635 119.942C133.958 120.844 132.916 121.173 132.105 120.714L131.112 122.039C132.64 122.901 134.512 122.385 135.729 120.762C137.047 119.006 137.076 116.567 134.791 114.854C132.506 113.14 130.195 113.822 128.856 115.607Z" fill="white"/>
<path d="M123.432 125.318C124.028 125.806 124.736 125.969 125.394 125.802C125.173 126.554 125.299 127.272 125.923 127.87C127.024 128.924 128.509 128.917 129.721 127.651L132.102 125.163L126.035 119.354L124.931 120.507L127.211 122.69L125.958 123.999C125.526 124.449 124.89 124.455 124.389 124.058L122.757 122.778L121.67 123.914L123.432 125.318ZM128.808 126.678C128.161 127.354 127.471 127.225 126.985 126.76C126.5 126.295 126.323 125.595 126.971 124.919L128.199 123.636L130.036 125.395L128.808 126.678Z" fill="white"/>
<path d="M117.86 127.059C115.971 128.597 115.728 131.148 117.289 133.065C118.85 134.982 121.398 135.259 123.286 133.72C125.184 132.174 125.428 129.623 123.867 127.707C122.305 125.79 119.758 125.513 117.86 127.059ZM118.741 128.121C119.922 127.159 121.568 127.412 122.629 128.715C123.69 130.017 123.613 131.69 122.432 132.652C121.241 133.622 119.587 133.359 118.526 132.057C117.465 130.754 117.55 129.091 118.741 128.121Z" fill="white"/>
<path d="M108.872 133.471L109.613 134.635L112.924 132.529L116.692 138.452L118.039 137.595L113.529 130.508L108.872 133.471Z" fill="white"/>
<path d="M103.075 136.452L103.701 137.682L107.198 135.902L110.382 142.158L111.805 141.434L107.994 133.948L103.075 136.452Z" fill="white"/>
<path d="M100.564 137.456L103.778 145.217L105.253 144.606L102.038 136.845L100.564 137.456Z" fill="white"/>
<path d="M97.2584 138.721L99.0208 144.369L93.776 139.808L92.1494 140.316L94.6518 148.334L96.1638 147.862L94.3979 142.204L99.6348 146.779L101.273 146.268L98.7705 138.249L97.2584 138.721Z" fill="white"/>
<path d="M87.0507 141.226C85.9403 141.425 85.1322 142.154 84.9751 143.048L84.7406 141.737L83.3467 141.986L83.8982 145.069C84.0397 145.86 84.7908 146.311 85.5114 146.182L87.7085 145.789L87.4951 144.596L85.8177 144.896C85.5579 144.943 85.3629 144.807 85.3164 144.547C85.158 143.661 86.0998 142.725 87.222 142.524C88.6867 142.262 90.0193 143.17 90.3468 145.001C90.6743 146.831 89.7284 148.086 88.24 148.352C87.106 148.555 86.179 148.074 85.8703 147.167L84.2992 147.448C84.7355 149.137 86.4373 150.064 88.4691 149.701C90.619 149.316 92.352 147.555 91.847 144.732C91.342 141.909 89.1415 140.852 87.0507 141.226Z" fill="white"/>
<path d="M76.9577 142.313C74.6298 142.34 72.6661 143.755 72.6986 146.563C72.7311 149.37 74.7271 150.739 77.0549 150.712L79.7788 150.681L79.6815 142.281L76.9577 142.313ZM78.179 149.331L77.1711 149.343C75.7192 149.36 74.3305 148.62 74.3065 146.544C74.2825 144.468 75.6537 143.708 77.1056 143.691L78.1136 143.68L78.179 149.331Z" fill="white"/>
<path d="M67.2299 141.733C64.8124 141.434 62.8017 143.022 62.4977 145.476C62.1936 147.929 63.7556 149.96 66.1731 150.26C68.6025 150.561 70.6132 148.972 70.9172 146.519C71.2213 144.066 69.6593 142.034 67.2299 141.733ZM67.0721 143.104C68.5845 143.292 69.54 144.656 69.3334 146.323C69.1267 147.99 67.8657 149.091 66.3532 148.904C64.8289 148.715 63.8749 147.339 64.0815 145.672C64.2882 144.005 65.5477 142.915 67.0721 143.104Z" fill="white"/>
<path d="M58.5747 140.221L55.1961 145.423L55.1415 139.22L53.6438 138.784L48.8857 146.146L50.4179 146.593L53.7955 141.265L53.8626 147.597L55.1645 147.976L58.6112 142.669L58.5861 148.973L60.1299 149.423L60.0608 140.654L58.5747 140.221Z" fill="white"/>
<path d="M48.8194 136.864L46.3134 142.223L45.5148 135.319L43.9712 134.597L40.4131 142.206L41.8479 142.877L44.359 137.507L45.1416 144.418L46.696 145.144L50.2542 137.535L48.8194 136.864Z" fill="white"/>
<path d="M150.431 67.3265L147.431 72.8265L143.431 67.8265" stroke="white"/>
</svg>
